<svg width="612" height="467" viewBox="0 0 612 467" fill="none" xmlns="http://www.w3.org/2000/svg">
                    <path opacity="0.1" d="M552.165 321.521C548.543 330.253 543.791 338.623 537.141 345.043C529.038 352.865 518.975 357.132 508.2 359.172C505.024 359.765 501.817 360.18 498.595 360.416C490.08 361.071 481.362 360.636 473 359.726C452.517 357.49 432.317 353.166 412.712 346.824C409.492 345.784 406.29 344.689 403.107 343.54C398.304 341.814 393.545 339.966 388.829 337.996C369.618 329.965 349.758 319.724 329.321 322.9C319.416 324.443 310.111 329.117 300.183 330.507C293.215 331.419 286.135 330.912 279.368 329.015C276.091 328.139 272.882 327.03 269.763 325.698C262.734 322.649 256.045 318.87 249.806 314.423C234.833 303.956 221.397 290.98 205.633 281.915C188.253 271.917 169.014 267.164 149.414 263.62C146.223 263.044 143.021 262.494 139.808 261.97C130.74 260.472 121.649 259.088 112.687 257.449C104.054 255.855 95.2678 253.905 87.753 249.113C82.391 245.693 77.8822 240.957 73.7462 235.967C66.1167 226.72 59.5724 216.628 54.2418 205.889C53.9593 205.324 53.6824 204.759 53.4112 204.193C45.1111 187.159 39.5287 168.588 36.1047 149.373C36.003 148.807 35.9069 148.242 35.8109 147.677C32.5903 128.84 31.415 109.365 31.771 90.0305L31.8049 88.335C32.0253 78.7894 32.6185 69.2833 33.5 59.9129C34.1328 53.3231 34.9803 46.4847 38.393 40.9461C41.8057 35.4075 47.3599 31.8469 52.9196 28.8855C77.385 15.8472 100.839 12.2188 127.157 18.5373C131.384 19.549 135.593 20.6398 139.803 21.7701C143.006 22.6291 146.21 23.5164 149.408 24.4094C171.523 30.564 193.558 37.1256 216.43 39.0867C218.638 39.2788 220.847 39.4258 223.058 39.5275C227.431 39.731 231.805 39.7762 236.178 39.6631C247.443 39.3469 258.669 38.1907 269.763 36.2043C272.972 35.6505 276.174 35.0363 279.368 34.3619C293.154 31.4852 306.816 27.6478 320.258 23.4034C323.004 22.5368 325.746 21.6552 328.485 20.7584C334.655 18.7408 340.825 16.6836 347.006 14.6829C365.46 8.70351 384.026 3.23838 403.107 1.03424C404.738 0.849623 406.373 0.685726 408.011 0.542552C409.576 0.406913 411.147 0.299532 412.712 0.220409C442.347 -1.36205 472.322 5.78727 498.595 20.4193C501.853 22.2354 505.055 24.1645 508.2 26.2066C512.559 29.0437 516.783 32.0956 520.874 35.3623C529.259 42.0594 537.107 49.6835 543.085 58.8448C548.91 67.7687 552.69 77.789 554.865 88.3237C554.984 88.8888 555.097 89.454 555.199 90.0192C558.391 107.025 557.397 125.263 553.814 142.302C553.436 144.088 553.035 145.88 552.617 147.666C552.487 148.231 552.351 148.796 552.215 149.361C548.351 165.474 543.412 181.542 544.701 198.016C544.864 200.09 545.124 202.148 545.463 204.182C545.559 204.747 545.655 205.312 545.763 205.878C548.283 219.317 554.012 232.067 557.447 245.377C563.896 270.668 562.044 297.363 552.165 321.521Z" fill="#1AA29C"/>
                    <path opacity="0.1" d="M508.2 90.0192H555.199C555.097 89.454 554.984 88.8889 554.865 88.3237H508.2V26.2066C505.059 24.1645 501.857 22.2354 498.595 20.4193V88.3237H412.712V0.220413C411.147 0.299536 409.576 0.406917 408.011 0.542556C406.446 0.678195 404.74 0.847744 403.107 1.03425V88.3237H280.498L280.204 88.0016L347.006 14.6829C340.825 16.6836 334.655 18.7408 328.485 20.7584L279.368 74.692V34.3619C276.17 35.0326 272.968 35.6467 269.762 36.2044V76.5288L236.178 39.6519C231.805 39.7574 227.431 39.7121 223.058 39.5162L267.22 87.9903L266.926 88.3124H149.402V24.3924C146.204 23.4995 143.001 22.6122 139.797 21.7531V88.3237H31.7936L31.7597 90.0192H139.808V147.666H35.7996C35.8956 148.231 35.9917 148.796 36.0934 149.361H139.808V204.182H53.3999C53.6711 204.747 53.948 205.312 54.2305 205.878H139.808V261.976C143.018 262.499 146.219 263.05 149.414 263.626V205.878H269.762V325.692C272.882 327.025 276.091 328.133 279.368 329.01V205.878H403.107V343.535C406.294 344.687 409.495 345.782 412.712 346.818V205.878H498.595V360.41C501.817 360.174 505.024 359.759 508.2 359.167V205.878H545.763C545.655 205.312 545.559 204.747 545.463 204.182H508.172V149.361H552.187C552.323 148.796 552.458 148.231 552.588 147.666H508.2V90.0192ZM498.595 90.0192V147.666H412.712V90.0192H498.595ZM403.107 147.666H279.368V90.0192H403.107V147.666ZM149.414 90.0192H268.067L269.762 91.5621V147.666H149.414V90.0192ZM149.414 204.182V149.361H269.762V204.182H149.414ZM279.368 204.182V149.361H403.107V204.182H279.368ZM498.595 204.182H412.712V149.361H498.595V204.182Z" fill="#1AA29C"/>
                    <path opacity="0.1" d="M457.304 50.3221H456.558C456.82 50.17 457.041 49.9551 457.199 49.6966C457.358 49.4381 457.45 49.1443 457.467 48.8414C457.467 47.6715 456.038 46.7164 454.292 46.7164H431.996C430.25 46.7164 428.815 47.6715 428.815 48.8414C428.815 50.0113 430.25 50.9664 431.996 50.9664H432.742C432.479 51.1182 432.259 51.333 432.1 51.5916C431.941 51.8501 431.849 52.1442 431.832 52.4472C431.832 53.4418 432.872 54.2783 434.262 54.5043H427.877C426.126 54.5043 424.696 55.4595 424.696 56.6294C424.696 57.7992 426.126 58.7544 427.877 58.7544H450.145C451.896 58.7544 453.326 57.7936 453.326 56.6294C453.326 55.6347 452.281 54.7926 450.891 54.5665H457.304C459.049 54.5665 460.479 53.6114 460.479 52.4472C460.479 51.2829 459.049 50.3221 457.304 50.3221Z" fill="#1AA29C"/>
                    <path opacity="0.1" d="M215.95 70.5324H215.204C215.466 70.3791 215.685 70.1639 215.844 69.9056C216.003 69.6474 216.095 69.3541 216.114 69.0516C216.114 67.8874 214.684 66.9323 212.933 66.9323H190.666C188.914 66.9323 187.484 67.8874 187.484 69.0516C187.484 70.2215 188.914 71.1767 190.666 71.1767H191.406C191.145 71.3302 190.926 71.5457 190.769 71.8039C190.611 72.0622 190.519 72.3553 190.502 72.6574C190.502 73.6521 191.541 74.4942 192.931 74.7202H186.518C184.772 74.7202 183.343 75.6754 183.343 76.8396C183.343 78.0038 184.772 78.9646 186.518 78.9646H208.814C210.56 78.9646 211.995 78.0095 211.995 76.8396C211.995 75.8449 210.95 75.0085 209.56 74.7824H215.973C217.719 74.7824 219.148 73.8273 219.148 72.6574C219.148 71.4875 217.696 70.5324 215.95 70.5324Z" fill="#1AA29C"/>
                    <path opacity="0.1" d="M491.465 157.036H490.719C490.98 156.883 491.2 156.668 491.358 156.41C491.517 156.151 491.61 155.858 491.628 155.556C491.628 154.386 490.199 153.431 488.447 153.431H466.18C464.428 153.431 462.999 154.386 462.999 155.556C462.999 156.725 464.428 157.681 466.18 157.681H466.92C466.659 157.834 466.441 158.05 466.283 158.308C466.125 158.566 466.034 158.859 466.016 159.161C466.016 160.156 467.056 160.992 468.446 161.218H462.033C460.287 161.218 458.857 162.174 458.857 163.343C458.857 164.513 460.287 165.468 462.033 165.468H484.306C486.052 165.468 487.487 164.513 487.487 163.343C487.487 162.349 486.442 161.507 485.052 161.281H491.465C493.21 161.281 494.64 160.325 494.64 159.161C494.64 157.997 493.21 157.036 491.465 157.036Z" fill="#1AA29C"/>
                    <path opacity="0.1" d="M296.963 438.013C428.823 438.013 535.717 426.209 535.717 411.648C535.717 397.087 428.823 385.283 296.963 385.283C165.102 385.283 58.2082 397.087 58.2082 411.648C58.2082 426.209 165.102 438.013 296.963 438.013Z" fill="#1AA29C"/>
                    <path d="M346.599 224.065V306.974C346.603 308.382 346.412 309.783 346.034 311.139C345.124 314.437 343.158 317.345 340.437 319.417C337.716 321.489 334.391 322.612 330.971 322.612H260.909C258.855 322.613 256.822 322.209 254.925 321.423C253.028 320.638 251.304 319.486 249.852 318.034C248.4 316.581 247.249 314.857 246.463 312.959C245.678 311.062 245.274 309.028 245.275 306.974V224.065C245.274 222.011 245.678 219.977 246.463 218.079C247.249 216.182 248.4 214.457 249.852 213.005C251.304 211.553 253.028 210.401 254.925 209.615C256.822 208.83 258.855 208.426 260.909 208.427H330.971C334.391 208.427 337.716 209.549 340.437 211.622C343.158 213.694 345.124 216.602 346.034 219.899C346.412 221.255 346.603 222.657 346.599 224.065Z" fill="#E9CCDB"/>
                    <path opacity="0.1" d="M246.405 224.065V306.974C246.405 308.383 246.215 309.787 245.84 311.145C245.464 309.787 245.274 308.383 245.275 306.974V224.065C245.274 222.655 245.464 221.252 245.84 219.894C246.215 221.252 246.405 222.655 246.405 224.065Z" fill="black"/>
                    <path d="M229.641 208.427H138.113C129.479 208.427 122.479 215.428 122.479 224.065V306.951C122.479 315.588 129.479 322.589 138.113 322.589H229.641C238.275 322.589 245.275 315.588 245.275 306.951V224.065C245.275 215.428 238.275 208.427 229.641 208.427Z" fill="#E9CCDB"/>
                    <path opacity="0.1" d="M346.599 224.065V306.974C346.603 308.382 346.413 309.783 346.034 311.139C345.659 309.783 345.469 308.382 345.469 306.974V224.065C345.469 222.657 345.659 221.256 346.034 219.899C346.413 221.255 346.603 222.657 346.599 224.065Z" fill="black"/>
                    <path d="M453.766 208.427H362.233C353.599 208.427 346.599 215.428 346.599 224.065V306.951C346.599 315.588 353.599 322.589 362.233 322.589H453.766C462.401 322.589 469.401 315.588 469.401 306.951V224.065C469.401 215.428 462.401 208.427 453.766 208.427Z" fill="#E9CCDB"/>
                    <path opacity="0.1" d="M239.059 331.067H126.886L126.321 321.261C125.7 310.252 139.927 301.113 157.697 301.113H234.042C240.003 301.113 244.602 304.357 243.839 308.02L239.059 331.067Z" fill="black"/>
                    <path d="M239.059 332.197H126.886L126.321 322.392C125.7 311.382 139.927 302.244 157.697 302.244H234.042C240.003 302.244 244.602 305.488 243.839 309.15L239.059 332.197Z" fill="#CAA4BC"/>
                    <path opacity="0.1" d="M351.464 331.717H463.637L464.202 321.911C464.824 310.902 450.597 301.763 432.827 301.763H356.482C350.526 301.763 345.921 305.007 346.684 308.67L351.464 331.717Z" fill="black"/>
                    <path d="M351.464 332.847H463.637L464.202 323.042C464.824 312.032 450.597 302.894 432.827 302.894H356.482C350.526 302.894 345.921 306.138 346.684 309.8L351.464 332.847Z" fill="#CAA4BC"/>
                    <path opacity="0.1" d="M258.485 301.763H334.491C336.612 301.763 338.713 302.181 340.673 302.993C342.633 303.805 344.414 304.995 345.914 306.496C347.414 307.996 348.603 309.777 349.415 311.738C350.227 313.698 350.645 315.799 350.645 317.921V327.959H240.754V319.481C240.757 314.78 242.627 310.273 245.952 306.95C249.277 303.627 253.785 301.762 258.485 301.763Z" fill="black"/>
                    <path d="M258.485 302.894H334.491C336.612 302.894 338.713 303.312 340.673 304.124C342.633 304.936 344.414 306.126 345.914 307.626C347.414 309.127 348.603 310.908 349.415 312.868C350.227 314.829 350.645 316.93 350.645 319.052V329.089H240.754V320.611C240.757 315.91 242.627 311.403 245.952 308.08C249.277 304.758 253.785 302.892 258.485 302.894Z" fill="#CAA4BC"/>
                    <path d="M134.548 312.982H225.516C229.562 312.982 233.442 314.589 236.303 317.451C239.164 320.313 240.771 324.194 240.771 328.241V348.87H127.785V319.747C127.789 317.954 128.503 316.236 129.77 314.968C131.038 313.7 132.756 312.986 134.548 312.982Z" fill="#E9CCDB"/>
                    <path opacity="0.1" d="M252.055 312.982H338.503C342.549 312.982 346.429 314.589 349.29 317.451C352.151 320.313 353.758 324.194 353.758 328.241V348.87H237.652V327.393C237.652 323.572 239.17 319.907 241.87 317.205C244.571 314.502 248.235 312.983 252.055 312.982Z" fill="black"/>
                    <path opacity="0.1" d="M254.315 312.982H340.763C344.809 312.982 348.689 314.589 351.55 317.451C354.411 320.313 356.018 324.194 356.018 328.241V348.87H239.913V327.393C239.913 323.572 241.43 319.907 244.131 317.205C246.831 314.502 250.495 312.983 254.315 312.982Z" fill="black"/>
                    <path d="M253.185 312.982H339.633C343.679 312.982 347.559 314.589 350.42 317.451C353.281 320.313 354.888 324.194 354.888 328.241V348.87H238.783V327.393C238.783 323.572 240.3 319.907 243.001 317.205C245.701 314.502 249.365 312.983 253.185 312.982Z" fill="#E9CCDB"/>
                    <path opacity="0.1" d="M358.437 312.982H450.8C454.659 312.982 458.359 314.515 461.088 317.244C463.816 319.973 465.349 323.675 465.349 327.535V348.87H352.38V319.04C352.38 317.433 353.018 315.892 354.154 314.756C355.289 313.62 356.83 312.982 358.437 312.982Z" fill="black"/>
                    <path d="M359.567 312.982H451.93C455.789 312.982 459.49 314.515 462.218 317.244C464.947 319.973 466.479 323.675 466.479 327.535V348.87H353.51V319.04C353.51 318.245 353.666 317.457 353.971 316.722C354.275 315.987 354.721 315.319 355.284 314.756C355.846 314.194 356.514 313.747 357.249 313.443C357.984 313.138 358.771 312.982 359.567 312.982Z" fill="#E9CCDB"/>
                    <path d="M129.446 396.626V412.027C129.444 414.087 128.625 416.063 127.169 417.52C125.712 418.977 123.737 419.796 121.677 419.798H116.309C114.249 419.796 112.274 418.977 110.817 417.52C109.361 416.063 108.542 414.087 108.54 412.027V396.626H129.446Z" fill="#9C7AA5"/>
                    <path d="M485.108 396.626V412.027C485.107 414.087 484.288 416.063 482.831 417.52C481.374 418.977 479.399 419.796 477.339 419.798H471.971C469.911 419.796 467.936 418.977 466.48 417.52C465.023 416.063 464.204 414.087 464.202 412.027V396.626H485.108Z" fill="#9C7AA5"/>
                    <path d="M135.147 295.546C135.147 291.637 134.037 287.809 131.945 284.506C129.854 281.204 126.867 278.564 123.334 276.894C119.8 275.225 115.865 274.593 111.986 275.074C108.108 275.555 104.446 277.129 101.427 279.611C98.4081 282.093 96.1565 285.383 94.9345 289.096C93.7125 292.809 93.5705 296.793 94.5249 300.584C95.4793 304.374 97.4909 307.816 100.325 310.507C103.16 313.199 106.7 315.029 110.535 315.785V399.169H133.7V303.159C134.659 300.736 135.149 298.153 135.147 295.546Z" fill="#E9CCDB"/>
                    <path d="M457.671 295.546C457.671 291.637 458.781 287.809 460.873 284.506C462.964 281.204 465.951 278.564 469.484 276.894C473.018 275.225 476.953 274.593 480.831 275.074C484.71 275.555 488.372 277.129 491.391 279.611C494.409 282.093 496.661 285.383 497.883 289.096C499.105 292.809 499.247 296.793 498.293 300.584C497.338 304.374 495.327 307.816 492.492 310.507C489.658 313.199 486.117 315.029 482.283 315.785V399.169H459.117V303.159C458.159 300.736 457.668 298.153 457.671 295.546Z" fill="#E9CCDB"/>
                    <path opacity="0.1" d="M135.147 295.546C135.147 291.637 134.037 287.809 131.945 284.506C129.854 281.204 126.867 278.564 123.334 276.894C119.8 275.225 115.865 274.593 111.986 275.074C108.108 275.555 104.446 277.129 101.427 279.611C98.4081 282.093 96.1565 285.383 94.9345 289.096C93.7125 292.809 93.5705 296.793 94.5249 300.584C95.4793 304.374 97.4909 307.816 100.325 310.507C103.16 313.199 106.7 315.029 110.535 315.785V399.169H133.7V303.159C134.659 300.736 135.149 298.153 135.147 295.546Z" fill="black"/>
                    <path opacity="0.1" d="M457.671 295.546C457.671 291.637 458.781 287.809 460.873 284.506C462.964 281.204 465.951 278.564 469.484 276.894C473.018 275.225 476.953 274.593 480.831 275.074C484.71 275.555 488.372 277.129 491.391 279.611C494.409 282.093 496.661 285.383 497.883 289.096C499.105 292.809 499.247 296.793 498.293 300.584C497.338 304.374 495.327 307.816 492.492 310.507C489.658 313.199 486.117 315.029 482.283 315.785V399.169H459.117V303.159C458.159 300.736 457.668 298.153 457.671 295.546Z" fill="black"/>
                    <path d="M471.565 384.757H122.479V400.865H471.565V384.757Z" fill="#9C7AA5"/>
                    <path opacity="0.1" d="M469.401 348.87H126.333V385.888H469.401V348.87Z" fill="black"/>
                    <path d="M469.401 347.739H126.333V384.757H469.401V347.739Z" fill="#CAA4BC"/>
                    <path opacity="0.1" d="M485.102 396.626H464.231V401.995H485.102V396.626Z" fill="black"/>
                    <path d="M462.773 297.242C462.772 293.332 463.882 289.502 465.974 286.199C468.066 282.896 471.053 280.256 474.588 278.586C478.122 276.916 482.059 276.285 485.938 276.767C489.817 277.249 493.479 278.824 496.498 281.308C499.517 283.792 501.768 287.083 502.988 290.797C504.209 294.512 504.349 298.497 503.392 302.288C502.435 306.079 500.421 309.52 497.584 312.21C494.747 314.899 491.204 316.727 487.368 317.48V400.865H464.202V304.855C463.247 302.431 462.762 299.847 462.773 297.242Z" fill="#E9CCDB"/>
                    <path opacity="0.1" d="M129.152 396.626H108.54V401.995H129.152V396.626Z" fill="black"/>
                    <path d="M130.61 297.242C130.609 293.334 129.499 289.506 127.408 286.205C125.316 282.903 122.331 280.264 118.798 278.594C115.265 276.924 111.331 276.293 107.454 276.773C103.576 277.253 99.9144 278.825 96.8953 281.305C93.8762 283.786 91.6238 287.074 90.4004 290.786C89.177 294.497 89.0329 298.48 89.9848 302.271C90.9368 306.061 92.9456 309.503 95.7775 312.196C98.6094 314.889 102.148 316.721 105.981 317.48V400.865H129.146V304.855C130.113 302.433 130.61 299.849 130.61 297.242Z" fill="#E9CCDB"/>
                    <path opacity="0.1" d="M459.23 347.739H133.695V348.773H459.23V347.739Z" fill="black"/>
                    <path d="M108.54 305.917C113.689 305.917 117.863 301.742 117.863 296.592C117.863 291.442 113.689 287.267 108.54 287.267C103.391 287.267 99.2173 291.442 99.2173 296.592C99.2173 301.742 103.391 305.917 108.54 305.917Z" fill="#CAA4BC"/>
                    <path d="M485.102 305.917C490.251 305.917 494.425 301.742 494.425 296.592C494.425 291.442 490.251 287.267 485.102 287.267C479.954 287.267 475.78 291.442 475.78 296.592C475.78 301.742 479.954 305.917 485.102 305.917Z" fill="#CAA4BC"/>
                    <path opacity="0.1" d="M207.147 280.83C198.265 278.608 179.512 255.188 179.512 255.188C172.461 250.26 158.081 220.408 158.081 220.408C158.081 220.408 152.623 217.836 147.815 229.4C143.006 240.963 115.043 250.209 106.67 251.503C101.952 252.232 102.41 254.329 103.709 256.025C104.585 257.113 105.748 257.935 107.065 258.398C110.625 259.749 121.671 273.013 121.671 273.013C131.971 279.976 143.396 312.14 147.193 320.544C149.301 325.218 151.645 322.979 153.318 320.069C156.547 314.449 160.97 309.607 166.274 305.883C180.648 295.773 196.056 291.579 197.107 291.562C198.435 291.528 216.029 283.051 207.147 280.83Z" fill="black"/>
                    <path d="M89.0696 253.284C87.6184 252.733 86.3407 251.804 85.3687 250.593C83.8827 248.689 83.2499 246.326 88.1938 245.507C96.9177 244.071 125.745 233.746 130.005 220.719C134.265 207.692 140.175 210.608 140.175 210.608C140.175 210.608 157.397 244.303 165.172 249.893C165.172 249.893 186.564 276.359 196.073 278.897C205.582 281.434 187.643 290.929 186.247 290.952C185.117 290.952 169.2 295.648 154.764 306.997C149.369 311.265 145.035 316.726 142.102 322.951C140.543 326.229 138.226 328.744 135.678 323.471C131.096 313.982 116.812 277.693 105.478 269.781C105.478 269.781 92.9117 254.787 89.0696 253.284Z" fill="#1AA29C"/>
                    <path opacity="0.1" d="M89.0696 253.284C87.6184 252.733 86.3407 251.804 85.3687 250.593C83.8827 248.689 83.2499 246.326 88.1938 245.507C96.9177 244.071 125.745 233.746 130.005 220.719C134.265 207.692 140.175 210.608 140.175 210.608C140.175 210.608 157.397 244.303 165.172 249.893C165.172 249.893 186.564 276.359 196.073 278.897C205.582 281.434 187.643 290.929 186.247 290.952C185.117 290.952 169.2 295.648 154.764 306.997C149.369 311.265 145.035 316.726 142.102 322.951C140.543 326.229 138.226 328.744 135.678 323.471C131.096 313.982 116.812 277.693 105.478 269.781C105.478 269.781 92.9117 254.787 89.0696 253.284Z" fill="black"/>
                    <path d="M95.2 252.583C93.8532 252.112 92.6612 251.282 91.7534 250.181C90.3804 248.485 89.821 246.315 94.4711 245.501C102.715 244.054 130.067 234.198 134.271 222.211C138.475 210.224 144.035 212.818 144.035 212.818C144.035 212.818 159.765 243.337 167.008 248.344C167.008 248.344 186.784 272.205 195.706 274.381C204.627 276.557 187.575 285.498 186.258 285.549C185.213 285.583 170.116 290.07 156.312 300.689C151.197 304.631 147.039 309.677 144.148 315.452C142.628 318.469 140.402 320.804 138.079 316.017C133.904 307.409 120.987 274.443 110.422 267.413C110.422 267.413 98.7992 253.922 95.2 252.583Z" fill="#1AA29C"/>
                    <path opacity="0.1" d="M126.886 263.372C126.886 263.372 123.926 266.158 138.085 260.817C152.244 255.476 126.886 263.372 126.886 263.372Z" fill="black"/>
                    <path opacity="0.1" d="M138.509 276.964C138.509 276.964 140.667 277.275 148.786 273.957C156.906 270.64 138.509 276.964 138.509 276.964Z" fill="black"/>
                    <path opacity="0.1" d="M137.797 301.921C137.797 301.921 139.814 301.921 147.916 298.564C156.019 295.207 137.797 301.921 137.797 301.921Z" fill="black"/>
                    <path opacity="0.1" d="M468.271 246.049V256.833C465.943 261.648 463.666 267.797 463.666 267.797C456.885 276.625 457.959 306.036 457.513 313.976C457.264 318.385 454.377 317.334 451.862 315.525C446.893 311.983 441.251 309.496 435.285 308.217C418.899 304.629 403.644 306.121 402.672 306.437C401.474 306.833 382.761 305.572 389.925 300.989C397.089 296.405 405.655 271.714 405.655 271.714C410.237 265.542 412.627 237.058 412.627 237.058C412.627 237.058 416.583 233.277 424.973 241.014C432.934 248.434 458.948 247.53 468.271 246.049Z" fill="black"/>
                    <path d="M474.435 249.78C475.43 249.024 476.184 247.995 476.605 246.818C477.17 245.055 476.853 243.229 472.373 244.128C464.434 245.722 436.161 247.118 427.798 239.352C419.436 231.587 415.453 235.368 415.453 235.368C415.453 235.368 413.063 263.846 408.48 270.024C408.48 270.024 399.92 294.716 392.75 299.299C385.58 303.883 404.299 305.143 405.497 304.742C406.446 304.425 421.702 302.939 438.11 306.528C444.075 307.806 449.717 310.291 454.687 313.83C457.202 315.638 460.089 316.695 460.338 312.281C460.784 304.369 459.722 274.935 466.491 266.107C466.491 266.107 471.723 251.984 474.435 249.78Z" fill="#1AA29C"/>
                    <path opacity="0.1" d="M474.435 249.78C475.43 249.024 476.184 247.995 476.605 246.818C477.17 245.055 476.853 243.229 472.373 244.128C464.434 245.722 436.161 247.118 427.798 239.352C419.436 231.587 415.453 235.368 415.453 235.368C415.453 235.368 413.063 263.846 408.48 270.024C408.48 270.024 399.92 294.716 392.75 299.299C385.58 303.883 404.299 305.143 405.497 304.742C406.446 304.425 421.702 302.939 438.11 306.528C444.075 307.806 449.717 310.291 454.687 313.83C457.202 315.638 460.089 316.695 460.338 312.281C460.784 304.369 459.722 274.935 466.491 266.107C466.491 266.107 471.723 251.984 474.435 249.78Z" fill="black"/>
                    <path d="M472.389 251.051C473.335 250.329 474.049 249.347 474.446 248.225C475.011 246.53 474.683 244.834 470.434 245.676C462.892 247.185 436.047 248.502 428.109 241.155C420.17 233.808 416.385 237.374 416.385 237.374C416.385 237.374 414.125 264.412 409.768 270.272C409.768 270.272 401.643 293.721 394.835 298.073C388.027 302.424 405.802 303.617 406.932 303.238C407.836 302.939 422.323 301.543 437.901 304.934C443.565 306.144 448.921 308.505 453.636 311.868C456.027 313.564 458.767 314.587 459.004 310.399C459.428 302.86 458.439 274.941 464.846 266.554C464.846 266.548 469.813 253.142 472.389 251.051Z" fill="#1AA29C"/>
                    <path opacity="0.1" d="M452.495 266.638C452.495 266.638 450.518 267.769 441.054 271.018C431.59 274.268 450.941 269.747 452.495 266.638Z" fill="black"/>
                    <path opacity="0.1" d="M451.507 276.613C451.507 276.613 445.574 281.474 442.607 281.898C439.641 282.322 449.811 281.361 451.507 276.613Z" fill="black"/>
                    <path opacity="0.1" d="M456.224 299.062C456.224 299.062 450.292 303.922 447.325 304.346C444.359 304.77 454.529 303.82 456.224 299.062Z" fill="black"/>
                    <path d="M366.251 303.142C365.412 303.105 364.58 302.986 363.765 302.786C363.708 302.521 363.256 302.34 362.301 302.3H362.109C359.171 301.181 356.535 299.388 354.414 297.067C351.69 294.071 343.983 290.324 343.983 290.324C343.983 290.324 338.537 285.73 334.943 285.357C331.35 284.984 321.417 274.958 312.964 265.678C304.511 256.398 291.448 246.281 291.448 246.281L285.905 240.098C285.905 240.098 279.441 235.492 277.944 232.938C277.125 231.553 274.554 230.841 271.921 230.592C269.096 229.462 264.434 229.462 262.259 229.937C260.931 230.236 257.259 233.712 253.643 237.414L256.615 199.265C256.655 198.736 256.515 198.209 256.218 197.769C255.92 197.33 255.482 197.005 254.976 196.846L244.975 201.724C244.615 201.898 244.308 202.164 244.085 202.496C243.861 202.827 243.73 203.212 243.704 203.611L241.02 244.563L229.211 253.199C228.943 251.751 228.322 250.393 227.403 249.243C220.781 240.607 210.486 256.991 206.65 263.846C206.469 263.846 206.294 263.903 206.13 263.942C206.058 264.144 205.94 264.326 205.785 264.474C202.866 263.051 200.095 261.342 197.514 259.37C197.333 259.171 197.182 258.947 197.067 258.703C196.502 257.296 194.282 254.877 192.999 253.538C189.1 249.147 183.286 243.263 182.456 242.89C182.015 242.698 179.93 241.099 177.342 239.07C176.947 238.212 176.505 237.376 176.02 236.566C174.178 233.514 171.037 232.61 168.839 232.367C166.805 230.784 165.251 229.603 164.839 229.4C163.432 228.699 160.188 223.635 158.623 220.402C157.058 217.17 145.684 216.751 145.684 216.751C145.598 212.31 146.627 207.918 148.679 203.979C148.798 203.753 148.911 203.532 149.029 203.317C151.707 202.538 154.199 201.222 156.353 199.45C158.507 197.678 160.278 195.486 161.559 193.008C162.841 190.531 163.605 187.818 163.807 185.036C164.008 182.254 163.642 179.459 162.731 176.823C164.189 176.308 165.969 176.534 167.5 175.997C169.556 175.28 171.421 173.618 171.737 171.476C171.874 170.043 171.541 168.605 170.788 167.379C170.099 166.157 169.224 165.049 168.195 164.095C165.404 161.168 161.386 159.365 157.459 158.014C152.482 156.318 147.255 155.013 141.995 155.301C136.735 155.589 131.406 157.613 128.016 161.625C127.415 162.454 126.706 163.199 125.909 163.841C124.7 164.666 123.151 164.802 121.688 164.745C116.863 164.57 111.823 162.665 107.371 164.53C102.02 166.791 100.15 173.313 99.4603 179.061C98.7427 184.978 98.5675 190.997 97.0024 196.745C95.4373 202.492 92.2111 208.11 86.9677 210.964C85.4365 211.795 83.764 212.377 82.3232 213.36C80.8824 214.344 79.6563 215.87 79.6507 217.61C79.6507 219.984 81.7808 221.73 82.8939 223.827C83.4589 224.895 83.7866 226.116 84.346 227.167C84.4025 227.275 84.459 227.376 84.5212 227.478L84.5551 227.535C84.6059 227.614 84.6568 227.693 84.7133 227.772C84.7288 227.801 84.7478 227.827 84.7698 227.851L84.928 228.066C84.9501 228.091 84.9708 228.118 84.9901 228.145C85.0692 228.235 85.1483 228.326 85.2331 228.411C85.3178 228.495 85.4365 228.603 85.5438 228.688C85.6512 228.772 85.7077 228.88 85.7981 228.97C88.222 231.417 92.5275 230.033 95.6351 231.519C96.2277 231.815 96.7739 232.196 97.2567 232.649C98.2963 233.78 99.1325 235.176 100.082 236.43L100.138 236.498L100.432 236.871L100.585 237.046C100.652 237.131 100.726 237.216 100.799 237.295C100.873 237.374 101.059 237.578 101.189 237.708L101.443 237.939C101.545 238.052 101.647 238.165 101.754 238.273C104.308 240.816 108.082 241.703 111.687 241.952C113.659 242.082 115.699 242.048 117.524 241.279C118.356 240.924 119.121 240.427 119.784 239.81C120.846 240.641 121.98 241.375 123.174 242.003C126.146 243.947 129.44 245.761 132.548 247.824C135.785 250.904 139.707 255.273 139.757 258.455C139.831 262.677 145.634 270.967 148.233 274.46C148.363 275.155 148.419 275.551 148.419 275.551L160.347 293.122C160.347 293.122 161.239 295.863 165.895 296.016C165.036 301.305 165.33 310.608 169.46 311.58C174.252 312.71 182.049 311.767 183.179 313.174C184.309 314.581 202.904 312.422 202.904 312.422C202.904 312.422 213.238 310.082 220.097 312.145C224.365 313.334 228.913 313.002 232.963 311.207C232.963 311.207 240.376 310.506 241.336 307.607C241.523 307.338 241.649 307.031 241.704 306.708C241.749 306.392 241.832 306.083 241.952 305.787C242.698 304.572 243.856 304.216 243.421 303.945C243.986 303.459 244.105 303.346 242.359 303.052C241.203 302.88 240.026 302.92 238.884 303.17C239.302 302.749 239.715 302.302 240.122 301.831C240.381 301.845 240.642 301.845 240.901 301.831C243.495 301.978 243.314 300.853 245.738 300.249C248.563 299.548 251.388 299.265 255.038 298.841C258.688 298.417 262.508 296.315 264.078 294.32C265.649 292.325 272.249 293.472 274.079 290.098C275.65 287.216 270.096 284.741 267.135 284.967C266.424 284.869 265.7 284.993 265.062 285.323C263.321 286.453 257.078 286.973 254.936 287.109C254.468 286.939 252.58 286.289 250.36 285.724C252.281 282.576 254.97 278.286 257.406 274.828C261.824 268.549 264.451 266.299 264.451 266.299C265.361 264.831 266.507 263.523 267.841 262.428C271.147 270.804 290.651 284.825 300.048 286.447C310.382 288.228 320.529 296.66 320.529 296.66C320.529 296.66 319.592 300.616 319.592 302.311C319.592 303.069 321.467 303.442 323.824 303.628C325.406 304.815 333.084 304.685 336.028 304.193C339.316 303.628 348.617 305.974 356.227 306.454C363.838 306.934 370.85 303.329 366.251 303.142Z" fill="url(#paint0_linear)"/>
                    <path d="M178.535 239.098L177.828 248.073L182.185 257.522L188.343 262.948L195.044 266.904L201.26 271.233L207.475 265.649C207.475 265.649 198.372 259.806 197.559 257.822C196.745 255.838 192.654 251.82 192.654 251.82L186.88 246.236L182.19 241.958L178.535 239.098Z" fill="#FD6F8D"/>
                    <path opacity="0.1" d="M178.535 239.098L177.828 248.073L182.185 257.522L188.343 262.948L195.044 266.904L201.26 271.233L207.475 265.649C207.475 265.649 198.372 259.806 197.559 257.822C196.745 255.838 192.654 251.82 192.654 251.82L186.88 246.236L182.19 241.958L178.535 239.098Z" fill="black"/>
                    <path d="M150.329 204.256C148.069 208.687 146.159 215.197 148.34 222.539C152.374 236.103 122.801 217.124 122.801 217.124C122.801 217.124 129.175 207.607 131.039 199.39C131.644 196.728 131.774 194.196 131.039 192.172C128.107 183.915 154.335 198.225 154.335 198.225C152.746 200.055 151.399 202.082 150.329 204.256Z" fill="#FFBEC5"/>
                    <path opacity="0.1" d="M146.572 216.757C146.572 216.757 157.697 217.17 159.211 220.335C160.725 223.499 163.884 228.456 165.262 229.145C166.641 229.835 181.218 241.805 182.456 242.353C183.693 242.901 196.214 255.974 196.214 257.353C196.214 258.732 209.147 266.712 217.402 267.95C225.657 269.187 238.308 284.051 242.026 283.497C245.744 282.943 253.326 285.701 253.326 285.701C253.326 285.701 261.858 285.289 263.92 283.91C265.983 282.531 273.684 285.289 271.898 288.589C270.113 291.89 263.643 290.793 262.129 292.721C260.615 294.648 256.903 296.711 253.326 297.123C249.75 297.536 246.998 297.807 244.246 298.497C241.495 299.186 242.184 300.559 238.031 299.876C233.878 299.192 217.809 270.561 217.809 270.561L199.926 262.445C199.926 262.445 193.186 256.94 192.632 255.149C192.078 253.357 179.151 241.116 179.151 241.116L162.228 228.727L146.572 216.757Z" fill="black"/>
                    <path d="M147.396 216.757C147.396 216.757 158.522 217.17 160.036 220.335C161.55 223.499 164.714 228.456 166.087 229.145C167.46 229.835 182.043 241.805 183.286 242.353C184.529 242.901 197.039 255.974 197.039 257.353C197.039 258.732 209.972 266.712 218.227 267.95C226.482 269.187 239.133 284.051 242.851 283.497C246.568 282.943 254.151 285.701 254.151 285.701C254.151 285.701 262.683 285.289 264.745 283.91C266.807 282.531 274.514 285.289 272.723 288.589C270.932 291.89 264.468 290.793 262.954 292.721C261.44 294.648 257.728 296.711 254.151 297.123C250.574 297.536 247.8 297.807 245.054 298.497C242.308 299.186 242.992 300.559 238.839 299.876C234.686 299.192 218.617 270.561 218.617 270.561L200.734 262.445C200.734 262.445 193.994 256.94 193.44 255.149C192.886 253.357 179.998 241.116 179.998 241.116L163.047 228.727L147.396 216.757Z" fill="#FD6F8D"/>
                    <path d="M205.339 278.224C205.339 278.224 222.035 263.451 222.855 262.354C223.262 261.789 228.544 257.805 233.776 253.877C240.278 249.025 246.373 243.65 251.998 237.804C255.767 233.893 259.801 229.988 261.191 229.677C264.016 229.032 271.186 229.309 272.655 231.785C274.124 234.26 280.453 238.759 280.453 238.759L285.866 244.806C285.866 244.806 298.618 254.713 306.873 263.796C315.128 272.878 324.846 282.695 328.344 283.062C331.841 283.429 337.147 287.922 337.147 287.922C337.147 287.922 344.667 291.596 347.317 294.529C349.967 297.462 354.38 300.311 358.872 300.492C363.364 300.672 356.487 304.165 349.057 303.702C341.627 303.238 332.553 300.949 329.338 301.503C326.123 302.057 317.145 302.142 317.145 300.492C317.145 298.841 318.06 294.987 318.06 294.987C318.06 294.987 308.156 286.753 298.087 285.012C288.018 283.271 265.966 266.847 266.146 259.235C266.146 259.235 263.033 258.958 259.451 264.462C259.451 264.462 256.886 266.667 252.575 272.81C248.264 278.953 243.128 287.758 243.128 287.758C243.128 287.758 235.149 303.894 228.731 303.764C222.312 303.634 215.43 302.894 215.43 302.894L206.899 296.841L206.334 289.494L205.339 278.224Z" fill="#FFBEC5"/>
                    <path opacity="0.05" d="M205.339 278.224C205.339 278.224 222.035 263.451 222.855 262.354C223.262 261.789 228.544 257.805 233.776 253.877C240.278 249.025 246.373 243.65 251.998 237.804C255.767 233.893 259.801 229.988 261.191 229.677C264.016 229.032 271.186 229.309 272.655 231.785C274.124 234.26 280.453 238.759 280.453 238.759L285.866 244.806C285.866 244.806 298.618 254.713 306.873 263.796C315.128 272.878 324.846 282.695 328.344 283.062C331.841 283.429 337.147 287.922 337.147 287.922C337.147 287.922 344.667 291.596 347.317 294.529C349.967 297.462 354.38 300.311 358.872 300.492C363.364 300.672 356.487 304.165 349.057 303.702C341.627 303.238 332.553 300.949 329.338 301.503C326.123 302.057 317.145 302.142 317.145 300.492C317.145 298.841 318.06 294.987 318.06 294.987C318.06 294.987 308.156 286.753 298.087 285.012C288.018 283.271 265.966 266.847 266.146 259.235C266.146 259.235 263.033 258.958 259.451 264.462C259.451 264.462 256.886 266.667 252.575 272.81C248.264 278.953 243.128 287.758 243.128 287.758C243.128 287.758 235.149 303.894 228.731 303.764C222.312 303.634 215.43 302.894 215.43 302.894L206.899 296.841L206.334 289.494L205.339 278.224Z" fill="black"/>
                    <path d="M209.193 279.049C209.193 279.049 225.883 264.282 226.708 263.18C227.533 262.078 248.258 246.846 248.258 246.846C248.258 246.846 262.197 231.163 265.045 230.519C267.892 229.874 275.04 230.151 276.509 232.627C277.978 235.102 284.3 239.601 284.3 239.601L289.713 245.654C289.713 245.654 302.46 255.561 310.715 264.643C318.97 273.726 328.694 283.542 332.186 283.91C335.678 284.277 340.989 288.776 340.989 288.776C340.989 288.776 348.509 292.444 351.159 295.377C353.809 298.31 358.222 301.159 362.714 301.339C367.206 301.52 360.329 305.013 352.899 304.55C345.469 304.086 336.39 301.803 333.18 302.351C329.971 302.899 320.993 303.018 320.993 301.322C320.993 299.627 321.914 295.818 321.914 295.818C321.914 295.818 312.009 287.566 301.918 285.82C291.827 284.074 269.836 267.673 270 260.066C270 260.066 266.881 259.789 263.304 265.293C263.304 265.293 260.739 267.497 256.428 273.641C252.117 279.784 246.981 288.595 246.981 288.595C246.981 288.595 239.003 304.713 232.579 304.595C226.154 304.476 219.284 303.724 219.284 303.724L210.752 297.671L210.187 290.324L209.193 279.049Z" fill="#FFBEC5"/>
                    <path opacity="0.1" d="M262.914 287.645C262.462 287.838 262.022 288.069 261.587 288.301L258.762 289.81C261.223 290.217 263.728 290.291 266.209 290.03C267.587 289.883 269.525 288.714 267.954 287.329C266.706 286.244 264.186 287.092 262.914 287.645Z" fill="black"/>
                    <path opacity="0.1" d="M250.004 289.601C251.535 289.296 253.185 288.996 254.614 289.601C255.104 289.837 255.568 290.123 255.999 290.454L258.451 292.223C256.339 292.847 254.166 293.245 251.97 293.41C251.678 293.45 251.382 293.439 251.094 293.376C250.717 293.244 250.375 293.027 250.094 292.743C248.179 291.15 246.885 290.223 250.004 289.601Z" fill="black"/>
                    <path opacity="0.1" d="M154.346 198.225C152.753 200.054 151.403 202.081 150.329 204.256C146.967 205.176 143.424 205.212 140.044 204.359C136.665 203.507 133.563 201.795 131.039 199.39C131.644 196.728 131.774 194.196 131.039 192.172C128.118 183.915 154.346 198.225 154.346 198.225Z" fill="black"/>
                    <path d="M144.972 204.425C156.116 204.425 165.149 195.389 165.149 184.243C165.149 173.097 156.116 164.061 144.972 164.061C133.829 164.061 124.796 173.097 124.796 184.243C124.796 195.389 133.829 204.425 144.972 204.425Z" fill="#FFBEC5"/>
                    <path d="M147.402 216.757L146.323 218.498L159.426 232.723L165.584 237.029L169.144 232.254L147.402 216.757Z" fill="#504F88"/>
                    <path d="M167.568 232.022C167.568 232.022 174.026 231.208 177.009 236.159C178.768 239.018 179.879 242.228 180.264 245.563C180.264 245.563 183.241 247.948 182.97 249.282C182.747 250.137 182.226 250.885 181.501 251.39C181.501 251.39 175.721 248.09 175.676 247.948C175.63 247.807 171.229 242.947 171.229 242.947L167.568 239.098V232.022Z" fill="#504F88"/>
                    <path opacity="0.1" d="M128.666 212.354C128.666 212.354 118.58 213.157 117.569 220.199C116.558 227.241 116.196 231.253 119.773 236.114C123.349 240.974 130.683 242.998 130.683 242.998C130.683 242.998 141.78 251.712 141.876 257.031C141.972 262.349 151.323 274.279 151.323 274.279C151.323 274.279 169.127 287.487 167.839 291.709C166.551 295.931 166.178 307.946 170.856 309.048C175.534 310.15 183.145 309.229 184.247 310.608C185.349 311.987 203.508 309.873 203.508 309.873C203.508 309.873 213.594 307.579 220.289 309.596C224.458 310.758 228.902 310.43 232.855 308.67C232.855 308.67 240.653 307.935 241.11 304.815C241.568 301.695 245.066 301.791 241.755 301.238C238.444 300.684 236.342 302.43 233.957 301.605C231.573 300.78 229.556 298.027 224.053 298.118C218.549 298.208 217.272 298.304 216.707 298.208C216.142 298.112 220.193 294.998 217.99 289.957C215.786 284.916 211.577 280.977 211.763 278.151C211.95 275.325 203.508 265.672 203.508 265.672C203.508 265.672 199.474 259.806 194.242 257.878C189.01 255.951 179.201 244.111 179.201 244.111C179.201 244.111 170.799 231.027 166.24 230.327C161.68 229.626 146.735 216.198 146.735 216.198C146.735 216.198 134.062 210.97 128.666 212.354Z" fill="black"/>
                    <path d="M128.395 212.903C128.395 212.903 118.304 213.722 117.281 220.747C116.258 227.772 115.908 231.802 119.484 236.668C123.061 241.534 130.401 243.546 130.401 243.546C130.401 243.546 141.498 252.261 141.588 257.584C141.678 262.908 151.035 274.828 151.035 274.828C151.035 274.828 168.85 288.041 167.568 292.28C166.285 296.519 165.912 308.517 170.585 309.619C175.257 310.721 182.88 309.805 183.976 311.179C185.072 312.552 203.237 310.444 203.237 310.444C203.237 310.444 213.328 308.155 220.024 310.173C224.19 311.332 228.631 311 232.579 309.235C232.579 309.235 240.376 308.5 240.834 305.386C241.291 302.272 244.789 302.357 241.478 301.808C238.167 301.26 236.065 303.001 233.68 302.17C231.296 301.339 229.279 298.593 223.776 298.689C218.272 298.785 216.995 298.87 216.43 298.779C215.865 298.689 219.911 295.569 217.713 290.522C215.515 285.475 211.294 281.53 211.498 278.688C211.701 275.845 203.243 266.209 203.243 266.209C203.243 266.209 199.209 260.342 193.982 258.415C188.756 256.488 178.941 244.653 178.941 244.653C178.941 244.653 170.534 231.57 165.98 230.864C161.426 230.157 146.47 216.763 146.47 216.763C146.47 216.763 133.785 211.518 128.395 212.903Z" fill="#FD6F8D"/>
                    <path opacity="0.1" d="M193.773 292.28C193.152 293.664 193.016 295.467 194.084 296.541C194.76 297.094 195.546 297.499 196.389 297.728C198.113 298.401 199.779 299.582 200.344 301.345C200.448 301.833 200.639 302.299 200.909 302.718C201.196 303.029 201.552 303.267 201.949 303.414C206.864 305.633 212.208 306.737 217.6 306.646C215.815 304.93 213.551 303.795 211.108 303.391C209.164 303.074 207.108 303.221 205.311 302.413C203.514 301.605 202.316 300.062 201.141 298.547C200.707 298.048 200.368 297.474 200.141 296.852C199.717 295.49 200.395 293.981 200.005 292.613C199.779 291.828 197.892 289.019 197.09 288.844C195.864 288.601 194.186 291.359 193.773 292.28Z" fill="black"/>
                    <path opacity="0.1" d="M264.971 258.229C266.101 257.861 271.847 256.788 270.113 254.606C268.531 252.605 266.197 257.805 264.971 258.229Z" fill="black"/>
                    <path d="M244.331 202.046L254.089 197.293L250.699 246.281L240.421 244.241L243.088 203.871C243.118 203.485 243.249 203.113 243.467 202.793C243.685 202.473 243.983 202.215 244.331 202.046Z" fill="#CBE3FF"/>
                    <path d="M254.089 197.293L250.699 246.281C251.073 246.281 251.434 246.139 251.708 245.885C251.982 245.63 252.151 245.281 252.179 244.908L255.711 199.667C255.75 199.145 255.611 198.626 255.316 198.195C255.021 197.764 254.589 197.445 254.089 197.293Z" fill="#C8BFCA"/>
                    <path d="M240.455 243.964L209.492 266.729C209.233 266.914 209.017 267.152 208.857 267.427C208.696 267.702 208.596 268.007 208.562 268.324C208.527 268.64 208.561 268.96 208.659 269.263C208.757 269.565 208.917 269.844 209.13 270.08L212.159 273.528L251.337 244.241L241.8 243.557C241.317 243.527 240.84 243.671 240.455 243.964Z" fill="#F1F1F2"/>
                    <path d="M239.658 246.276L218.803 260.879L221.708 264.027L246.037 246.711L239.658 246.276Z" fill="#7E7A98"/>
                    <path d="M212.17 273.528L251.337 244.241C251.648 244.888 251.724 245.622 251.553 246.319C251.382 247.016 250.974 247.632 250.399 248.061L215.995 273.872C215.429 274.301 214.723 274.504 214.016 274.44C213.309 274.376 212.65 274.051 212.17 273.528Z" fill="#C8BFCA"/>
                    <path d="M205.424 265.655C205.424 265.655 219.097 238.024 227.171 248.593C235.245 259.161 214.786 270.634 214.786 270.634L205.424 265.655Z" fill="#FFBEC5"/>
                    <path opacity="0.1" d="M132.536 220.25C129.827 220.955 127.344 222.345 125.326 224.285C123.308 226.226 121.822 228.653 121.01 231.333C120.123 234.368 120.185 237.696 123.191 239.923C130.073 245.01 139.791 248.593 144.289 256.94C147.104 262.399 149.048 268.265 150.052 274.325L161.703 291.522C161.703 291.522 163.471 297.027 175.263 292.721C187.055 288.414 193.502 286.204 193.502 286.204C193.502 286.204 202.644 281.299 206.729 279.507C207.305 279.214 207.916 278.997 208.548 278.863C209.921 278.863 219.753 270.448 220.205 269.289C220.657 268.13 210.266 263.315 206.113 264.361C206.113 264.361 205.52 266.847 197.723 266.48C189.925 266.113 186.987 269.419 186.987 269.419C186.987 269.419 183.134 268.04 180.659 268.176C178.184 268.311 173.692 265.915 170.342 266.203C170.342 266.203 172.037 262.812 169.839 259.986C167.641 257.161 165.618 257.415 164.703 254.069C164.177 252.159 162.443 246.083 161.036 241.2C159.202 234.698 155.548 228.857 150.504 224.364C147.216 221.465 143.306 219.108 139.384 219.249C137.071 219.325 134.774 219.66 132.536 220.25Z" fill="black"/>
                    <path opacity="0.1" d="M132.779 218.871C130.068 219.578 127.583 220.968 125.562 222.909C123.541 224.851 122.052 227.278 121.236 229.959C120.355 232.994 120.411 236.317 123.423 238.544C130.299 243.631 140.023 247.214 144.515 255.561C147.336 261.019 149.287 266.885 150.295 272.946L161.946 290.149C161.946 290.149 163.709 295.654 175.506 291.342C187.304 287.029 193.745 284.831 193.745 284.831C193.745 284.831 202.887 279.92 206.966 278.134C207.541 277.839 208.153 277.622 208.786 277.489C210.164 277.489 219.996 269.074 220.442 267.916C220.888 266.757 210.509 261.942 206.356 262.987C206.356 262.987 205.763 265.474 197.966 265.107C190.168 264.739 187.23 268.04 187.23 268.04C187.23 268.04 183.377 266.667 180.902 266.802C178.427 266.938 173.93 264.542 170.585 264.83C170.585 264.83 172.28 261.439 170.076 258.613C167.873 255.787 165.861 256.047 164.94 252.696C164.42 250.791 162.68 244.716 161.279 239.827C159.444 233.326 155.79 227.484 150.747 222.991C147.453 220.092 143.549 217.735 139.627 217.904C137.316 217.967 135.018 218.291 132.779 218.871Z" fill="black"/>
                    <path d="M132.536 219.425C129.827 220.13 127.344 221.52 125.326 223.46C123.308 225.401 121.822 227.827 121.01 230.507C120.123 233.542 120.185 236.871 123.191 239.098C130.073 244.184 139.791 247.768 144.289 256.115C147.104 261.574 149.048 267.44 150.052 273.499L161.703 290.697C161.703 290.697 163.471 296.202 175.263 291.89C187.055 287.578 193.502 285.379 193.502 285.379C193.502 285.379 202.644 280.468 206.729 278.682C207.304 278.386 207.916 278.169 208.548 278.038C209.921 278.038 219.753 269.622 220.205 268.464C220.657 267.305 210.266 262.49 206.113 263.536C206.113 263.536 205.52 266.022 197.723 265.655C189.925 265.288 186.987 268.588 186.987 268.588C186.987 268.588 183.134 267.215 180.659 267.35C178.184 267.486 173.692 265.09 170.342 265.378C170.342 265.378 172.037 261.987 169.839 259.161C167.641 256.335 165.618 256.595 164.703 253.25C164.177 251.339 162.443 245.264 161.036 240.375C159.202 233.875 155.548 228.035 150.504 223.545C147.216 220.64 143.306 218.289 139.384 218.458C137.073 218.522 134.776 218.846 132.536 219.425Z" fill="#FD6F8D"/>
                    <path opacity="0.1" d="M168.698 176.857C170.703 176.156 172.528 174.528 172.839 172.426C172.969 171.017 172.638 169.605 171.896 168.402C169.387 163.88 164.33 161.473 159.465 159.789C154.6 158.104 149.504 156.844 144.368 157.132C139.232 157.421 134.028 159.393 130.706 163.349C130.12 164.161 129.429 164.891 128.649 165.519C127.468 166.328 125.96 166.458 124.53 166.407C119.818 166.231 114.897 164.366 110.552 166.198C105.331 168.39 103.5 174.794 102.822 180.423C102.121 186.21 101.952 192.105 100.421 197.734C98.8896 203.363 95.7481 208.862 90.629 211.654C89.1317 212.467 87.4988 213.038 86.1089 213.999C84.7189 214.96 83.5041 216.458 83.4985 218.164C83.4985 220.487 85.5777 222.194 86.6626 224.245C87.4536 225.743 87.7587 227.535 88.9509 228.733C91.3183 231.129 95.5164 229.773 98.5562 231.231C101.257 232.531 102.421 235.713 104.545 237.832C107.043 240.324 110.727 241.195 114.241 241.438C116.168 241.568 118.162 241.534 119.937 240.782C123.474 239.284 125.349 235.244 125.558 231.412C125.768 227.58 124.666 223.816 123.863 220.058C123.598 218.82 123.372 217.497 123.863 216.316C124.283 215.408 124.936 214.628 125.756 214.056C129.932 210.755 135.881 209.246 138.277 204.493C139.887 201.3 139.407 197.508 139.791 193.953C139.938 192.658 140.26 191.285 141.221 190.398C142.396 189.318 144.153 189.268 145.741 189.126C150.449 188.652 154.893 186.722 158.454 183.605C160.183 182.096 161.228 180.214 162.731 178.569C164.234 176.924 166.669 177.552 168.698 176.857Z" fill="black"/>
                    <path d="M168.133 176.308C170.138 175.602 171.963 173.974 172.274 171.872C172.401 170.465 172.068 169.055 171.325 167.853C168.822 163.332 163.759 160.925 158.895 159.235C154.03 157.545 148.928 156.296 143.797 156.584C138.667 156.872 133.457 158.845 130.129 162.801C129.546 163.613 128.856 164.343 128.078 164.971C126.898 165.779 125.389 165.915 123.959 165.858C119.247 165.689 114.326 163.824 109.975 165.649C104.754 167.848 102.924 174.251 102.246 179.874C101.551 185.667 101.381 191.556 99.8501 197.185C98.3189 202.814 95.1718 208.319 90.0527 211.105C88.5554 211.925 86.9225 212.49 85.5325 213.456C84.1426 214.423 82.9278 215.915 82.9278 217.616C82.9278 219.939 85.0071 221.651 86.0919 223.703C86.8773 225.195 87.188 226.992 88.352 228.19C90.7251 230.581 94.9231 229.225 97.9573 230.688C100.664 231.988 101.828 235.17 103.952 237.289C106.444 239.776 110.128 240.652 113.648 240.89C115.569 241.025 117.569 240.986 119.343 240.234C122.88 238.736 124.756 234.701 124.965 230.869C125.174 227.037 124.067 223.268 123.27 219.515C123.01 218.277 122.784 216.955 123.242 215.774C123.666 214.867 124.32 214.087 125.14 213.513C129.31 210.218 135.26 208.709 137.656 203.956C139.266 200.763 138.786 196.971 139.175 193.416C139.322 192.116 139.644 190.743 140.599 189.861C141.78 188.776 143.537 188.731 145.119 188.589C149.829 188.11 154.274 186.179 157.838 183.062C159.567 181.559 160.607 179.671 162.115 178.026C163.624 176.382 166.121 177.02 168.133 176.308Z" fill="#FFE2DA"/>
                    <g opacity="0.1">
                    <path opacity="0.1" d="M96.5956 229.015C93.7705 227.659 89.9284 228.744 87.4988 226.958C87.7274 227.403 88.0185 227.812 88.3633 228.173C90.7363 230.564 94.9344 229.208 97.9686 230.671C98.657 231.008 99.2806 231.463 99.8105 232.016C99.0043 230.765 97.8995 229.734 96.5956 229.015Z" fill="black"/>
                    <path opacity="0.1" d="M171.342 167.853C170.777 166.834 170.078 165.895 169.263 165.062C169.527 165.424 169.77 165.802 169.991 166.192C170.734 167.393 171.065 168.804 170.935 170.21C170.624 172.313 168.799 173.94 166.793 174.647C164.788 175.353 162.273 174.686 160.776 176.342C159.279 177.998 158.222 179.874 156.493 181.378C152.931 184.494 148.488 186.426 143.78 186.905C142.187 187.052 140.43 187.092 139.26 188.177C138.3 189.058 137.978 190.437 137.836 191.732C137.429 195.281 137.927 199.079 136.316 202.272C133.921 207.019 127.971 208.528 123.796 211.829C122.977 212.403 122.325 213.183 121.903 214.089C121.439 215.265 121.665 216.593 121.931 217.831C122.733 221.584 123.841 225.348 123.626 229.185C123.411 233.022 121.536 237.052 118.004 238.55C116.224 239.301 114.23 239.335 112.303 239.205C108.789 238.968 105.105 238.075 102.607 235.605L102.573 235.566C102.998 236.168 103.47 236.735 103.986 237.261C106.478 239.748 110.162 240.624 113.682 240.861C115.603 240.997 117.603 240.957 119.377 240.206C122.914 238.708 124.79 234.673 124.999 230.841C125.208 227.009 124.101 223.239 123.304 219.487C123.044 218.249 122.818 216.927 123.276 215.745C123.699 214.838 124.354 214.059 125.174 213.485C129.344 210.19 135.294 208.681 137.689 203.928C139.3 200.735 138.819 196.942 139.209 193.388C139.356 192.088 139.678 190.714 140.639 189.833C141.814 188.748 143.571 188.702 145.159 188.561C149.869 188.082 154.313 186.151 157.877 183.034C159.606 181.53 160.646 179.643 162.155 177.998C163.663 176.354 166.149 177.02 168.178 176.303C170.206 175.585 172.009 173.969 172.319 171.866C172.437 170.458 172.094 169.05 171.342 167.853Z" fill="black"/>
                    </g>
                    <path opacity="0.1" d="M569.85 444.484C593.129 444.484 612 441.587 612 438.013C612 434.439 593.129 431.542 569.85 431.542C546.571 431.542 527.699 434.439 527.699 438.013C527.699 441.587 546.571 444.484 569.85 444.484Z" fill="#1AA29C"/>
                    <path opacity="0.1" d="M60.2931 467C73.2121 467 83.6849 465.393 83.6849 463.411C83.6849 461.429 73.2121 459.822 60.2931 459.822C47.3742 459.822 36.9014 461.429 36.9014 463.411C36.9014 465.393 47.3742 467 60.2931 467Z" fill="#1AA29C"/>
                    <path d="M52.7953 315.395C52.7953 315.395 56.8239 320.668 50.9364 328.625C45.0489 336.583 40.2011 343.32 42.1447 348.271C42.1447 348.271 51.0381 333.486 58.2704 333.282C65.5026 333.079 60.7791 324.285 52.7953 315.395Z" fill="#1AA29C"/>
                    <path opacity="0.1" d="M52.7954 315.395C53.1475 315.903 53.4252 316.459 53.6203 317.045C60.6774 325.342 64.4404 333.085 57.6545 333.282C51.332 333.463 43.7494 344.766 41.9301 347.621C41.9922 347.841 42.0657 348.061 42.1448 348.271C42.1448 348.271 51.0382 333.486 58.2704 333.282C65.5026 333.079 60.7791 324.285 52.7954 315.395Z" fill="black"/>
                    <path d="M60.2875 322.115C60.2875 323.968 60.0784 325.472 59.8242 325.472C59.5699 325.472 59.3609 323.968 59.3609 322.115C59.3609 320.261 59.6208 321.131 59.875 321.131C60.1293 321.131 60.2875 320.255 60.2875 322.115Z" fill="#FFD037"/>
                    <path d="M62.8583 324.33C61.2311 325.218 59.8129 325.754 59.6886 325.528C59.5643 325.302 60.7847 324.398 62.4176 323.511C64.0505 322.623 63.4008 323.273 63.5477 323.511C63.6946 323.748 64.4912 323.443 62.8583 324.33Z" fill="#FFD037"/>
                    <path d="M31.4998 315.395C31.4998 315.395 27.4712 320.668 33.3587 328.625C39.2462 336.583 44.094 343.32 42.1447 348.271C42.1447 348.271 33.257 333.486 26.0191 333.282C18.7812 333.079 23.5387 324.285 31.4998 315.395Z" fill="#1AA29C"/>
                    <path opacity="0.1" d="M31.4998 315.395C31.1477 315.903 30.8699 316.459 30.6749 317.045C23.6178 325.342 19.8547 333.085 26.6406 333.282C32.9632 333.463 40.5457 344.766 42.3594 347.621C42.3024 347.842 42.2306 348.059 42.1447 348.271C42.1447 348.271 33.257 333.486 26.0191 333.282C18.7812 333.079 23.5387 324.285 31.4998 315.395Z" fill="black"/>
                    <path d="M24.0076 322.115C24.0076 323.968 24.2167 325.472 24.4709 325.472C24.7252 325.472 24.9343 323.968 24.9343 322.115C24.9343 320.261 24.6744 321.131 24.4201 321.131C24.1658 321.131 24.0076 320.255 24.0076 322.115Z" fill="#FFD037"/>
                    <path d="M21.4368 324.33C23.0641 325.218 24.4823 325.754 24.6066 325.528C24.7309 325.302 23.5104 324.398 21.8775 323.511C20.2446 322.623 20.8944 323.273 20.7475 323.511C20.6006 323.748 19.8039 323.443 21.4368 324.33Z" fill="#FFD037"/>
                    <path opacity="0.1" d="M42.1504 388.612C65.4294 388.612 84.3008 385.715 84.3008 382.141C84.3008 378.567 65.4294 375.67 42.1504 375.67C18.8714 375.67 0 378.567 0 382.141C0 385.715 18.8714 388.612 42.1504 388.612Z" fill="#1AA29C"/>
                    <path d="M63.8415 341.166L63.6381 342.811L63.3555 345.139L63.2369 346.106L62.9544 348.434L62.8357 349.406L62.5532 351.729L59.327 378.185C59.0388 380.547 55.1797 382.384 50.5296 382.384H33.7655C29.1098 382.384 25.2902 380.547 24.9738 378.185L21.7419 351.735L21.4594 349.412L21.3408 348.44L21.0526 346.112L20.9396 345.145L20.6571 342.817L20.4537 341.172C20.2898 339.838 22.3747 338.708 25.0134 338.708H59.2874C61.9091 338.702 64.0053 339.833 63.8415 341.166Z" fill="#65617D"/>
                    <path d="M63.6437 342.811L63.3612 345.134H20.9396L20.6571 342.811H63.6437Z" fill="#9D9CB5"/>
                    <path d="M63.2425 346.106L62.96 348.434H21.3464L21.0583 346.106H63.2425Z" fill="#9D9CB5"/>
                    <path d="M62.8357 349.401L62.5532 351.729H21.7419L21.4594 349.401H62.8357Z" fill="#9D9CB5"/>
                    <defs>
                    <linearGradient id="paint0_linear" x1="223.68" y1="313.643" x2="223.68" y2="155.245" gradientUnits="userSpaceOnUse">
                    <stop stop-color="#808080" stop-opacity="0.25"/>
                    <stop offset="0.54" stop-color="#808080" stop-opacity="0.12"/>
                    <stop offset="1" stop-color="#808080" stop-opacity="0.1"/>
                    </linearGradient>
                    </defs>
                    </svg>